<svg width="93" height="24" viewBox="0 0 93 24" fill="none" xmlns="http://www.w3.org/2000/svg">
<rect width="93" height="24" rx="12" fill="white"/>
<g clip-path="url(#clip0_251_3201)">
<path d="M19.125 18.125L15.375 14.375M16.625 11.25C16.625 13.6662 14.6662 15.625 12.25 15.625C9.83375 15.625 7.875 13.6662 7.875 11.25C7.875 8.83375 9.83375 6.875 12.25 6.875C14.6662 6.875 16.625 8.83375 16.625 11.25Z" stroke="#125D72" stroke-width="2" stroke-linecap="round" stroke-linejoin="round"/>
</g>
<path d="M32.7576 16.099C32.3469 16.099 31.9619 16.066 31.6026 16C31.2432 15.9267 30.9096 15.824 30.6016 15.692C30.3009 15.5527 30.0332 15.384 29.7986 15.186L30.1286 14.438C30.3779 14.6287 30.6346 14.7863 30.8986 14.911C31.1626 15.0357 31.4486 15.131 31.7566 15.197C32.0646 15.2557 32.3982 15.285 32.7576 15.285C33.4029 15.285 33.8869 15.164 34.2096 14.922C34.5322 14.6727 34.6936 14.3427 34.6936 13.932C34.6936 13.712 34.6422 13.5287 34.5396 13.382C34.4442 13.228 34.2829 13.0997 34.0556 12.997C33.8356 12.887 33.5459 12.7953 33.1866 12.722L32.0096 12.491C31.3129 12.3443 30.7959 12.1023 30.4586 11.765C30.1286 11.4277 29.9636 10.9803 29.9636 10.423C29.9636 9.96833 30.0846 9.57233 30.3266 9.235C30.5686 8.89033 30.9059 8.62267 31.3386 8.432C31.7712 8.24133 32.2662 8.146 32.8236 8.146C33.1829 8.146 33.5202 8.18267 33.8356 8.256C34.1509 8.322 34.4406 8.42833 34.7046 8.575C34.9759 8.71433 35.2142 8.88667 35.4196 9.092L35.0896 9.818C34.7669 9.51733 34.4222 9.301 34.0556 9.169C33.6889 9.02967 33.2782 8.96 32.8236 8.96C32.4349 8.96 32.0939 9.01867 31.8006 9.136C31.5146 9.25333 31.2909 9.422 31.1296 9.642C30.9756 9.85467 30.8986 10.1113 30.8986 10.412C30.8986 10.7493 31.0049 11.0207 31.2176 11.226C31.4302 11.424 31.7822 11.5743 32.2736 11.677L33.4396 11.908C34.1802 12.062 34.7302 12.2967 35.0896 12.612C35.4489 12.9273 35.6286 13.3527 35.6286 13.888C35.6286 14.3207 35.5112 14.7057 35.2766 15.043C35.0419 15.373 34.7082 15.6333 34.2756 15.824C33.8502 16.0073 33.3442 16.099 32.7576 16.099ZM39.4346 16.099C38.8626 16.099 38.3676 15.989 37.9496 15.769C37.5316 15.5417 37.2089 15.2227 36.9816 14.812C36.7542 14.394 36.6406 13.899 36.6406 13.327C36.6406 12.7697 36.7506 12.282 36.9706 11.864C37.1906 11.446 37.4949 11.1197 37.8836 10.885C38.2796 10.6503 38.7342 10.533 39.2476 10.533C39.7462 10.533 40.1679 10.643 40.5126 10.863C40.8646 11.0757 41.1359 11.38 41.3266 11.776C41.5172 12.1647 41.6126 12.6377 41.6126 13.195V13.525H37.3336V12.92H41.0076L40.8206 13.074C40.8206 12.4873 40.6886 12.0327 40.4246 11.71C40.1606 11.38 39.7756 11.215 39.2696 11.215C38.9029 11.215 38.5876 11.2993 38.3236 11.468C38.0669 11.6367 37.8689 11.8713 37.7296 12.172C37.5902 12.4727 37.5206 12.8247 37.5206 13.228V13.305C37.5206 13.7523 37.5939 14.13 37.7406 14.438C37.8946 14.7387 38.1146 14.9697 38.4006 15.131C38.6866 15.285 39.0312 15.362 39.4346 15.362C39.7499 15.362 40.0579 15.3143 40.3586 15.219C40.6592 15.1237 40.9416 14.9623 41.2056 14.735L41.5136 15.384C41.2642 15.6113 40.9489 15.7873 40.5676 15.912C40.1936 16.0367 39.8159 16.099 39.4346 16.099ZM44.6914 16.099C44.3174 16.099 43.9838 16.0293 43.6904 15.89C43.3971 15.7433 43.1661 15.5453 42.9974 15.296C42.8288 15.0467 42.7444 14.768 42.7444 14.46C42.7444 14.064 42.8471 13.7523 43.0524 13.525C43.2651 13.2903 43.6061 13.1253 44.0754 13.03C44.5521 12.9273 45.1864 12.876 45.9784 12.876H46.5504V13.481H46.0004C45.5604 13.481 45.1901 13.4957 44.8894 13.525C44.5888 13.5543 44.3468 13.6057 44.1634 13.679C43.9874 13.745 43.8591 13.8403 43.7784 13.965C43.6978 14.0823 43.6574 14.229 43.6574 14.405C43.6574 14.7057 43.7638 14.9477 43.9764 15.131C44.1964 15.3143 44.4861 15.406 44.8454 15.406C45.1461 15.406 45.4101 15.3363 45.6374 15.197C45.8721 15.0503 46.0554 14.856 46.1874 14.614C46.3268 14.372 46.3964 14.1007 46.3964 13.8V12.535C46.3964 12.0877 46.2974 11.765 46.0994 11.567C45.9014 11.3617 45.5861 11.259 45.1534 11.259C44.8308 11.259 44.5154 11.3067 44.2074 11.402C43.9068 11.4973 43.5951 11.644 43.2724 11.842L42.9644 11.182C43.1624 11.0427 43.3824 10.9253 43.6244 10.83C43.8738 10.7347 44.1304 10.6613 44.3944 10.61C44.6658 10.5587 44.9298 10.533 45.1864 10.533C45.6484 10.533 46.0334 10.6063 46.3414 10.753C46.6568 10.8997 46.8914 11.127 47.0454 11.435C47.2068 11.743 47.2874 12.139 47.2874 12.623V16H46.4404V14.768H46.5174C46.4441 15.032 46.3231 15.2667 46.1544 15.472C45.9858 15.67 45.7768 15.824 45.5274 15.934C45.2854 16.044 45.0068 16.099 44.6914 16.099ZM48.9911 16V10.632H49.8601V11.897H49.7831C49.9151 11.4643 50.1351 11.138 50.4431 10.918C50.7584 10.6907 51.1654 10.5587 51.6641 10.522L52.0271 10.5L52.1041 11.303L51.4771 11.358C50.9784 11.4093 50.5934 11.5743 50.3221 11.853C50.0507 12.1317 49.9151 12.502 49.9151 12.964V16H48.9911ZM55.3401 16.099C54.7975 16.099 54.3281 15.9817 53.9321 15.747C53.5435 15.5123 53.2391 15.186 53.0191 14.768C52.8065 14.3427 52.7001 13.8477 52.7001 13.283C52.7001 12.7183 52.8065 12.2307 53.0191 11.82C53.2391 11.4093 53.5435 11.094 53.9321 10.874C54.3281 10.6467 54.7975 10.533 55.3401 10.533C55.6848 10.533 56.0185 10.5953 56.3411 10.72C56.6711 10.8373 56.9425 11.0023 57.1551 11.215L56.8361 11.875C56.6235 11.677 56.3888 11.5303 56.1321 11.435C55.8828 11.3397 55.6371 11.292 55.3951 11.292C54.8378 11.292 54.4051 11.4643 54.0971 11.809C53.7891 12.1537 53.6351 12.6487 53.6351 13.294C53.6351 13.932 53.7891 14.4343 54.0971 14.801C54.4051 15.1603 54.8378 15.34 55.3951 15.34C55.6298 15.34 55.8755 15.2923 56.1321 15.197C56.3888 15.1017 56.6198 14.955 56.8251 14.757L57.1441 15.417C56.9315 15.6297 56.6601 15.7983 56.3301 15.923C56.0001 16.0403 55.6701 16.099 55.3401 16.099ZM58.2401 16V8.245H59.1421V11.809H59.0321C59.1934 11.391 59.4464 11.0757 59.7911 10.863C60.1431 10.643 60.5428 10.533 60.9901 10.533C61.4301 10.533 61.7894 10.61 62.0681 10.764C62.3541 10.918 62.5668 11.1527 62.7061 11.468C62.8528 11.7833 62.9261 12.1793 62.9261 12.656V16H62.0131V12.711C62.0131 12.3957 61.9691 12.1317 61.8811 11.919C61.8004 11.7063 61.6684 11.5487 61.4851 11.446C61.3091 11.3433 61.0744 11.292 60.7811 11.292C60.4584 11.292 60.1724 11.3617 59.9231 11.501C59.6811 11.6403 59.4904 11.8347 59.3511 12.084C59.2191 12.3333 59.1531 12.623 59.1531 12.953V16H58.2401Z" fill="black"/>
<defs>
<clipPath id="clip0_251_3201">
<rect width="15" height="15" fill="white" transform="translate(6 5)"/>
</clipPath>
</defs>
</svg>
