<svg width="70" height="70" viewBox="0 0 70 70" fill="none" xmlns="http://www.w3.org/2000/svg">
<path d="M35 70C54.33 70 70 54.33 70 35C70 15.67 54.33 0 35 0C15.67 0 0 15.67 0 35C0 54.33 15.67 70 35 70Z" fill="#00AED6"/>
<path d="M35 70C54.33 70 70 54.33 70 35C70 15.67 54.33 0 35 0C15.67 0 0 15.67 0 35C0 54.33 15.67 70 35 70Z" fill="#00AED6"/>
<path fill-rule="evenodd" clip-rule="evenodd" d="M55.3869 33.9108C55.1289 29.4664 51.3468 26.0547 46.8994 26.2546H24.791C23.9856 26.2546 23.3327 25.6016 23.3327 24.7962C23.3327 23.9908 23.9856 23.3379 24.791 23.3379H47.1909C47.0698 20.312 45.006 17.7117 42.0867 16.9066C35.5602 15.7546 28.8823 15.7546 22.3557 16.9066C18.6457 17.8205 15.8704 20.908 15.3557 24.6941C14.3204 31.563 14.3204 38.5482 15.3557 45.4171C16.1439 49.4152 19.3169 52.5127 23.3328 53.2046C31.4343 54.2108 39.6292 54.2108 47.7307 53.2046C51.3336 52.467 54.0597 49.5059 54.4976 45.8546C55.223 41.9169 55.5211 37.9125 55.3869 33.9108ZM48.1244 38.8108V40.1087C48.1244 40.9141 47.4715 41.5671 46.666 41.5671C45.8606 41.5671 45.2077 40.9141 45.2077 40.1087V38.8108C44.7417 38.4023 44.4757 37.8118 44.4785 37.1921C44.4785 35.9839 45.4579 35.0046 46.666 35.0046C47.8742 35.0046 48.8535 35.9839 48.8535 37.1921C48.8564 37.8118 48.5904 38.4023 48.1244 38.8108Z" fill="white"/>
</svg>
