<svg width="70" height="70" viewBox="0 0 70 70" fill="none" xmlns="http://www.w3.org/2000/svg">
<path fill-rule="evenodd" clip-rule="evenodd" d="M53.4529 0.017119L2.26105 7.46784C2.26105 7.46784 0 7.75441 0 10.728L0 63.7899C0 63.7899 0.308887 70 6.81095 70H64.8292C64.8292 70 69.9999 68.6514 69.9999 63.001V19.2171C69.9999 19.2171 70.1019 13.007 63.2785 13.007L7.32988 13.007C6.67144 12.8551 6.06585 12.5028 5.58318 11.9909C5.10052 11.479 4.76048 10.8284 4.60241 10.1144C4.43253 9.12993 4.79701 9.02879 5.75147 9.02879L57.1255 9.02879V2.98055C57.1255 2.98055 56.9433 -0.262705 53.4529 0.017119Z" fill="#E8451E"/>
<path fill-rule="evenodd" clip-rule="evenodd" d="M35.4111 63.2578C31.167 63.2578 28.041 61.3699 23.4293 56.3904C23.0516 55.9601 22.8428 55.3858 22.8474 54.7899C22.8519 54.194 23.0695 53.6236 23.4537 53.2003C23.838 52.777 24.3585 52.5341 24.9044 52.5236C25.4503 52.513 25.9784 52.7355 26.3761 53.1437C31.2318 58.3828 33.4805 59.6842 37.3602 58.5379C39.615 57.8636 41.6382 54.735 41.7556 51.1378C41.8483 48.3429 40.0413 46.519 36.3872 45.72C29.8264 44.2871 25.953 41.5496 24.878 37.5781C24.0131 34.3821 25.1498 30.8118 27.9947 27.8011L28.1121 27.6865C34.228 22.1069 41.3294 26.2638 44.2298 29.2441C44.6168 29.6635 44.8387 30.2311 44.8483 30.8263C44.8578 31.4215 44.6542 31.9973 44.2808 32.4312C43.9074 32.865 43.3937 33.1228 42.8488 33.1497C42.304 33.1766 41.771 32.9704 41.3633 32.575C41.1193 32.3255 35.6242 26.8774 30.8612 31.1388C29.2333 32.8953 28.4982 34.8203 28.8997 36.297C29.4804 38.4479 32.4334 40.2078 37.2119 41.2529C45.3325 43.0262 46.0244 48.8823 45.9441 51.3164C45.7711 56.6196 41.7062 62.56 37.8914 63.0859C37.0688 63.2003 36.2404 63.2577 35.4111 63.2578Z" fill="white"/>
</svg>
