<svg width="43" height="16" viewBox="0 0 43 16" fill="none" xmlns="http://www.w3.org/2000/svg">
<path d="M6.33612 11.5028C6.33612 10.8988 6.34195 9.28434 6.32871 9.08542C6.34025 6.68305 4.78698 4.98839 3.8057 5.1205C3.12668 5.18677 2.55762 5.49812 2.25207 6.39383C1.96887 7.22858 2.22206 8.33891 3.16362 8.59945C4.17042 8.87926 4.75831 9.11207 5.18378 9.4405C5.70509 9.84258 6.13068 10.6108 6.14198 11.5038" fill="#0060AF"/>
<path d="M6.73779 15.1547C4.96256 15.1547 3.13812 14.663 1.31612 13.6905L1.27141 13.6658L1.25002 13.6146C0.432388 11.6737 0 9.55086 0 7.47393C0 5.40014 0.41465 3.36815 1.23289 1.42989L1.25537 1.37838L1.30093 1.3527C2.98638 0.454816 4.79951 0 6.69162 0C8.45422 0 10.3366 0.506322 12.1344 1.46678L12.1806 1.48987L12.2019 1.54233C13.0352 3.51898 13.4746 5.64127 13.4746 7.68379C13.4746 9.71837 13.0527 11.7521 12.2184 13.7275L12.1964 13.7795L12.15 13.8035C10.4903 14.687 8.6186 15.1547 6.73779 15.1547ZM1.48475 13.4244C3.25475 14.3607 5.02002 14.8335 6.73779 14.8335C8.55919 14.8335 10.3706 14.3858 11.9831 13.5371C12.784 11.6229 13.1901 9.65279 13.1901 7.68379C13.1901 5.70685 12.7663 3.65042 11.9647 1.73196C10.22 0.809624 8.39785 0.320516 6.69162 0.320516C4.85978 0.320516 3.10398 0.757435 1.46944 1.61939C0.684847 3.49808 0.285505 5.46667 0.285505 7.47393C0.285505 9.48501 0.700519 11.5423 1.48475 13.4244Z" fill="#0060AF"/>
<path d="M5.91512 11.5038C5.9184 10.7296 5.53412 10.045 5.03187 9.67705C4.58637 9.35189 3.98826 9.13821 3.02338 8.86305C2.72512 8.77726 2.41313 8.58667 2.31654 8.34375C2.06105 8.63325 2.01464 9.28412 2.05959 9.66447C2.11183 10.1047 2.56924 10.8301 3.25798 10.8586C3.67858 10.8775 4.21035 10.7568 4.46536 10.6958C4.90528 10.589 5.6013 10.8989 5.7121 11.5029" fill="#0060AF"/>
<path d="M6.69144 1.37695C5.52366 1.37695 4.51492 2.243 4.51856 3.74161C4.52221 5.00182 5.42343 5.67646 5.74502 6.15833C6.23098 6.88447 6.49401 7.74396 6.52135 9.0591C6.54261 10.1058 6.54152 11.1393 6.54625 11.5056H6.80406C6.79957 11.1224 6.7879 10.0252 6.80126 9.02672C6.81875 7.71118 7.09126 6.88447 7.57747 6.15833C7.90185 5.67646 8.80234 5.00182 8.80429 3.74161C8.80866 2.243 7.80053 1.37695 6.63372 1.37695" fill="#0060AF"/>
<path d="M6.98824 11.5028C6.98824 10.8988 6.98216 9.28434 6.99516 9.08542C6.98374 6.68305 8.53604 4.98839 9.51817 5.1205C10.1972 5.18677 10.7656 5.49812 11.072 6.39383C11.355 7.22858 11.1004 8.33891 10.1599 8.59945C9.1526 8.87926 8.56544 9.11207 8.13888 9.4405C7.61817 9.84258 7.22235 10.6108 7.2102 11.5038" fill="#0060AF"/>
<path d="M7.40823 11.5038C7.40458 10.7296 7.78874 10.045 8.28953 9.67705C8.73686 9.35189 9.33569 9.13821 10.2997 8.86305C10.5986 8.77726 10.9102 8.58667 11.0051 8.34375C11.2618 8.63325 11.3081 9.28412 11.2631 9.66447C11.2098 10.1047 10.7536 10.8301 10.0661 10.8586C9.64561 10.8775 9.11105 10.7568 8.85713 10.6958C8.41892 10.589 7.72095 10.8989 7.60966 11.5029" fill="#0060AF"/>
<path d="M7.76857 14.0039L7.61914 12.7777L7.97985 12.7162C8.06769 12.7027 8.1746 12.7199 8.21736 12.7818C8.26462 12.8464 8.27908 12.8999 8.28819 12.9846C8.3018 13.0894 8.27483 13.2105 8.16986 13.2709V13.2746C8.2871 13.2746 8.35793 13.3693 8.37846 13.5291C8.3815 13.5629 8.39037 13.6444 8.3815 13.7125C8.35768 13.8744 8.27179 13.9264 8.12685 13.9492L7.76857 14.0039ZM8.00074 13.7844C8.04351 13.7775 8.08688 13.7749 8.12078 13.7506C8.17266 13.7125 8.16792 13.6309 8.16075 13.5704C8.14265 13.4373 8.11179 13.3868 7.98629 13.4077L7.90744 13.4213L7.95737 13.7912L8.00074 13.7844ZM7.92518 13.2178C7.97292 13.2091 8.03768 13.2026 8.06465 13.1517C8.07874 13.1176 8.09684 13.0906 8.08494 13.0149C8.07024 12.9251 8.04375 12.8695 7.94243 12.8911L7.84803 12.9082L7.88521 13.2224" fill="#0060AF"/>
<path d="M9.33107 13.2657C9.33386 13.2885 9.33714 13.3139 9.33836 13.3367C9.36751 13.5604 9.33107 13.7455 9.10752 13.7965C8.77707 13.8681 8.71377 13.6372 8.65557 13.3139L8.62459 13.1391C8.57903 12.8297 8.55947 12.5956 8.88167 12.5234C9.0633 12.4861 9.18333 12.5674 9.23327 12.7707C9.24104 12.801 9.25076 12.8311 9.25441 12.8616L9.05674 12.9075C9.0339 12.8311 9.00365 12.6946 8.91472 12.7061C8.75508 12.7277 8.8078 12.9511 8.8242 13.0444L8.88361 13.3801C8.90147 13.4816 8.93695 13.6437 9.07508 13.6124C9.18722 13.5872 9.13838 13.3907 9.12842 13.3102" fill="#0060AF"/>
<path d="M9.64848 13.6374L9.58008 12.3685L9.84566 12.2773L10.4025 13.381L10.1934 13.4513L10.0614 13.1709L9.82926 13.2493L9.85927 13.5682L9.64848 13.6374ZM9.80982 13.0443L9.9776 12.9897L9.75478 12.4763" fill="#0060AF"/>
<path d="M3.08886 12.6776C3.17196 12.3784 3.24644 12.1581 3.56353 12.2559C3.73325 12.3092 3.83846 12.3934 3.83348 12.6151C3.83266 12.6644 3.81817 12.7147 3.8087 12.7635L3.61127 12.7022C3.63715 12.5797 3.65355 12.4826 3.51943 12.4361C3.3644 12.3883 3.32662 12.5997 3.30524 12.6909L3.22493 13.0236C3.19942 13.1224 3.1688 13.2857 3.30524 13.3277C3.41798 13.3619 3.48638 13.2374 3.5272 13.0557L3.38907 13.0146L3.43681 12.8221L3.76156 12.9396L3.60739 13.5808L3.45795 13.5351L3.4916 13.3996H3.48735C3.41859 13.5104 3.33464 13.522 3.26113 13.5062C2.93639 13.4074 2.97028 13.1687 3.04779 12.8498" fill="#0060AF"/>
<path d="M4.29743 13.2197L4.19963 13.7413L3.97949 13.6877L4.21409 12.4697L4.58938 12.5651C4.80903 12.6184 4.87537 12.7284 4.84427 12.9547C4.82653 13.0847 4.76955 13.2247 4.63044 13.2134L4.62898 13.2112C4.74659 13.2576 4.75655 13.3242 4.73602 13.4395C4.72715 13.4886 4.66604 13.7863 4.7082 13.8344L4.70965 13.8709L4.48186 13.804C4.47238 13.7215 4.50458 13.5732 4.51733 13.491C4.53021 13.4184 4.55074 13.3159 4.48514 13.2774C4.43375 13.2466 4.41467 13.2481 4.3566 13.2331L4.29743 13.2197ZM4.33498 13.031L4.48319 13.0759C4.57322 13.0905 4.62327 13.0381 4.64101 12.9158C4.65705 12.8036 4.63627 12.7598 4.55548 12.7381L4.39657 12.7019" fill="#0060AF"/>
<path d="M5.70974 12.7412L5.92745 12.7696L5.83366 13.6258C5.7881 13.8973 5.6948 14.016 5.42922 13.9788C5.15902 13.9404 5.09487 13.802 5.11127 13.5284L5.20567 12.6729L5.42509 12.7011L5.33093 13.5375C5.32097 13.6284 5.30226 13.763 5.44598 13.7792C5.57343 13.7901 5.60234 13.6952 5.61668 13.5772" fill="#0060AF"/>
<path d="M6.16699 14.0252L6.23248 12.8008L6.65077 12.8211C6.84844 12.8321 6.90019 13.0136 6.894 13.1869C6.88828 13.2922 6.85901 13.4098 6.77736 13.4737C6.71042 13.5279 6.62441 13.5407 6.54459 13.5364L6.40827 13.5279L6.38106 14.041L6.16699 14.0252ZM6.41447 13.3411L6.52527 13.3481C6.6153 13.3518 6.67495 13.3118 6.68272 13.1631C6.6871 13.0203 6.63911 12.9962 6.52248 12.9904L6.43464 12.987" fill="#0060AF"/>
<path d="M35.6694 2.56041L34.0069 5.9537C33.3794 5.3807 32.6132 4.95895 31.6355 4.95895C29.322 4.95895 28.3822 6.89831 28.3822 8.26439C28.3822 9.27841 28.9727 10.7746 31.0312 10.7746C31.8953 10.7746 33.1237 10.0985 33.4772 9.79101L31.833 13.7278C31.0492 13.9036 30.7918 14.0126 30.1283 14.0357C26.4438 14.1594 24.955 11.6141 24.9561 9.01322C24.9585 5.57498 27.6769 1.39352 32.1832 1.39352C32.4594 1.39352 32.7971 1.5009 33.0859 1.6199L33.3777 1.2002" fill="#0060AF"/>
<path d="M42.5293 1.30566L43.0001 13.6388H39.4965L39.4945 11.5237H37.1055L36.3192 13.6388H32.5195L36.4919 4.83189L35.5962 4.82533L37.2981 1.30566H42.5293ZM39.4718 5.07863L38.121 8.66592H39.5125" fill="#0060AF"/>
<path d="M22.7442 1.30662C24.4792 1.31754 25.4596 2.37664 25.4596 3.90654C25.4596 5.3169 24.4256 6.56535 23.2905 7.21089C24.4592 7.69398 24.5602 8.87987 24.5602 9.71887C24.5602 11.7458 22.7516 13.6398 20.4006 13.6398H15.2734L17.2734 4.95553L16.4519 4.9502L18.1313 1.30662C18.1313 1.30662 21.3333 1.29569 22.7442 1.30662ZM21.042 6.30699C21.4009 6.30699 22.0346 6.2048 22.193 5.42373C22.3666 4.57586 21.7719 4.55304 21.4866 4.55304L20.4673 4.54802L20.1118 6.30703L21.042 6.30699ZM19.6008 8.4864L19.1315 10.5133H20.3317C20.804 10.5133 21.4475 10.2498 21.6052 9.59017C21.761 8.92865 21.3111 8.4864 20.8405 8.4864" fill="#0060AF"/>
</svg>
