<svg width="43" height="15" viewBox="0 0 43 15" fill="none" xmlns="http://www.w3.org/2000/svg">
<path d="M13.6192 9.53674e-07H2.45265C1.09866 9.53674e-07 0 1.04923 0 2.34519V12.6545C0 13.9386 1.07693 14.9812 2.41591 14.9997L13.6112 15C14.9652 15 16.0664 13.9505 16.0664 12.6545L16.0718 2.34519C16.0718 1.04923 14.9729 9.53674e-07 13.6192 9.53674e-07ZM3.7798 13.7982L3.1704 13.8051C2.43252 13.8051 1.83686 13.2386 1.83686 12.5425L1.83238 12.442V2.92181L1.83686 2.40867C1.86657 1.73521 2.41463 1.19107 3.13365 1.19107H4.37132C5.49523 1.19107 6.40407 2.10144 6.40407 3.17361C6.40407 3.70612 6.18037 4.18678 5.81862 4.53811L2.66037 7.52518L5.62177 10.3382C6.00206 10.7059 6.23214 11.1884 6.23214 11.7155C6.23214 12.8655 5.13635 13.7982 3.7798 13.7982ZM12.8842 13.7896L7.36244 13.7881C7.36244 13.7881 8.00093 12.5001 8.00093 11.7042C8.00093 10.7337 7.65292 9.86501 7.10807 9.29167L5.2204 7.49598L7.14546 5.64068C7.72163 5.13588 8.10191 4.2428 8.10191 3.22695C8.10191 2.42208 7.86352 1.70898 7.47748 1.19107H8.81614C9.93909 1.19107 10.8489 2.10144 10.8489 3.17361C10.8489 3.70612 10.6261 4.18678 10.2654 4.53811L7.16559 7.49478L13.6016 13.6152C13.3965 13.735 13.1402 13.7896 12.8842 13.7896ZM14.2312 11.8779L9.61824 7.49389L11.8149 5.41272C12.2626 4.88974 12.5477 4.10454 12.5477 3.22695C12.5477 2.41731 12.3048 1.68544 11.9172 1.16783L12.8992 1.19644C13.6358 1.19644 14.235 1.76113 14.235 2.45932L14.2312 11.8779Z" fill="#00529C"/>
<path d="M25.9697 6.79599C26.0595 6.71226 26.1656 6.60439 26.288 6.47238C26.4101 6.34037 26.5258 6.18452 26.635 6.00453C26.7443 5.82454 26.8376 5.62399 26.9147 5.40199C26.992 5.18028 27.0307 4.94338 27.0307 4.69158C27.0307 4.20019 26.9405 3.74158 26.7606 3.31575C26.5804 2.89022 26.304 2.51833 25.931 2.20037C25.5581 1.88301 25.0922 1.63389 24.5326 1.4539C23.9734 1.27421 23.3205 1.18422 22.575 1.18422H22.5545H20.4109H19.8529H17.6562V3.47697V11.4143V13.7747H23.0572C23.8414 13.7747 24.5259 13.6757 25.1114 13.4779C25.6962 13.28 26.1819 13.0073 26.5676 12.6596C26.9533 12.3118 27.2393 11.9071 27.426 11.4456C27.6123 10.984 27.7056 10.4893 27.7056 9.96156C27.7056 9.25413 27.5321 8.62477 27.185 8.07289C26.8376 7.5216 26.4324 7.09577 25.9697 6.79599ZM23.5816 3.49127C23.7634 3.55593 23.9152 3.63997 24.0338 3.74575C24.3409 4.0205 24.4946 4.34889 24.4946 4.73091C24.4946 5.07748 24.4304 5.36385 24.3025 5.59062C24.1744 5.81769 24.0463 5.99082 23.9184 6.11002H20.1639V3.34257H22.4976C22.9351 3.34257 23.2953 3.39293 23.5816 3.49127ZM23.1921 8.28893C23.8718 8.28893 24.3754 8.45313 24.7033 8.78092C25.0117 9.10364 25.167 9.48447 25.167 9.9252C25.167 10.3793 24.9909 10.767 24.6387 11.0895C24.2862 11.4119 23.7072 11.5734 22.9003 11.5734H22.5989H20.1639V8.28893H23.1921Z" fill="#00529C"/>
<path d="M36.862 8.35156C37.2669 8.0938 37.6047 7.79402 37.8747 7.45223C38.1448 7.11043 38.3438 6.73287 38.4726 6.31926C38.6011 5.90535 38.6657 5.4828 38.6657 5.05101C38.6657 4.48751 38.5656 3.969 38.3665 3.4952C38.1668 3.02169 37.868 2.61404 37.4695 2.27224C37.0707 1.93044 36.5725 1.66374 35.9746 1.47183C35.3767 1.28023 34.6855 1.18398 33.9013 1.18398H33.8306H28.6355H28.5869V13.7744H31.1431V9.09803H32.5684L36.0935 13.7744H39.0897L35.4444 8.93622C35.9842 8.80451 36.4568 8.60963 36.862 8.35156ZM33.9204 3.34233C34.0812 3.34233 34.233 3.35216 34.3774 3.36915C34.8331 3.43322 35.2054 3.58489 35.4924 3.82597C35.8829 4.15465 36.0781 4.55754 36.0781 5.03492C36.0781 5.27421 36.0363 5.50694 35.9532 5.73371C35.8698 5.96078 35.7388 6.16073 35.5595 6.33357C35.3799 6.507 35.1495 6.64705 34.8679 6.75463C34.5861 6.8622 34.2467 6.91584 33.8498 6.91584H31.1431V3.34233H33.9204Z" fill="#00529C"/>
<path d="M39.9928 1.18422V1.18779C39.9669 1.1872 39.9417 1.18422 39.9158 1.18422H39.894V1.18511V5.80011V9.10692V13.7747H42.5004V1.18422H39.9928Z" fill="#00529C"/>
</svg>
