<svg width="40" height="40" viewBox="0 0 40 40" fill="none" xmlns="http://www.w3.org/2000/svg">
<path d="M20 40C31.0457 40 40 31.0457 40 20C40 8.95431 31.0457 0 20 0C8.95431 0 0 8.95431 0 20C0 31.0457 8.95431 40 20 40Z" fill="#00AED6"/>
<path d="M20 40C31.0457 40 40 31.0457 40 20C40 8.95431 31.0457 0 20 0C8.95431 0 0 8.95431 0 20C0 31.0457 8.95431 40 20 40Z" fill="#00AED6"/>
<path fill-rule="evenodd" clip-rule="evenodd" d="M31.6497 19.3779C31.5023 16.8382 29.3411 14.8887 26.7997 15.0029H14.1664C13.7061 15.0029 13.333 14.6298 13.333 14.1695C13.333 13.7093 13.7061 13.3362 14.1664 13.3362H26.9663C26.8971 11.6071 25.7178 10.1212 24.0496 9.66122C20.3202 9.0029 16.5042 9.0029 12.7748 9.66122C10.6548 10.1834 9.06889 11.9477 8.77478 14.1112C8.18315 18.0363 8.18315 22.0278 8.77478 25.9529C9.22517 28.2375 11.0383 30.0076 13.3331 30.4029C17.9625 30.9779 22.6453 30.9779 27.2748 30.4029C29.3335 29.9814 30.8913 28.2894 31.1415 26.2029C31.556 23.9528 31.7264 21.6645 31.6497 19.3779ZM27.4997 22.1779V22.9195C27.4997 23.3798 27.1266 23.7529 26.6664 23.7529C26.2061 23.7529 25.833 23.3798 25.833 22.9195V22.1779C25.5667 21.9444 25.4148 21.607 25.4164 21.2529C25.4164 20.5625 25.976 20.0029 26.6664 20.0029C27.3567 20.0029 27.9164 20.5625 27.9164 21.2529C27.918 21.607 27.766 21.9444 27.4997 22.1779Z" fill="white"/>
</svg>
