<svg width="43" height="16" viewBox="0 0 43 16" fill="none" xmlns="http://www.w3.org/2000/svg">
<path d="M41.2384 5.37612H34.4129V4.07211H41.2384V1.46547H30.3179V7.98139H37.1434V9.2854H30.3179V11.892H41.2384V5.37612Z" fill="black"/>
<path d="M28.9533 1.46547H26.2228V11.8907H28.9533V1.46547Z" fill="black"/>
<path d="M13.9377 1.46547V4.07211H22.1278V5.37612H13.9377V11.892H16.6668V8.02107L20.7633 11.892H24.8583L20.5855 7.98139H24.8583V1.46547H13.9377Z" fill="black"/>
<path d="M5.74623 7.98139H8.46957V5.38159H5.74623V7.98139ZM6.42993 6.02743H7.79447V7.33007H6.42993V6.02743Z" fill="black"/>
<path d="M4.3817 1.46547H1.99233C1.90204 1.46612 1.8156 1.5005 1.75153 1.56125C1.71966 1.59157 1.69438 1.62761 1.67717 1.6673C1.65995 1.70699 1.65112 1.74954 1.6512 1.79249V11.565C1.65112 11.608 1.65995 11.6505 1.67717 11.6902C1.69438 11.7299 1.71966 11.7659 1.75153 11.7963C1.81575 11.8566 1.90221 11.8905 1.99233 11.8907H8.47673V9.29087H4.3817V1.46547Z" fill="black"/>
<path d="M12.2306 1.46547H5.74623V4.07211H9.8427V7.98139H12.566V1.79249C12.5669 1.7064 12.5324 1.62341 12.47 1.56125C12.406 1.50119 12.3203 1.4669 12.2306 1.46547Z" fill="black"/>
<path d="M12.5732 9.2854H9.8427V15.15H12.5732V9.2854Z" fill="black"/>
<path d="M5.461 0H0.341133C0.250775 0.000360169 0.164226 0.0347863 0.100332 0.0957813C0.0364392 0.156776 0.000377283 0.2394 0 0.325659V5.21329H0.682267V0.971505C0.684136 0.886199 0.720855 0.804969 0.784589 0.745149C0.848322 0.685329 0.934022 0.651657 1.0234 0.651319H5.46674L5.461 0Z" fill="black"/>
<path d="M42.3177 8.46988V12.7117C42.3174 12.7979 42.2813 12.8805 42.2174 12.9415C42.1535 13.0025 42.067 13.037 41.9766 13.0373H37.5333V13.6832H42.6531C42.6984 13.6837 42.7433 13.6757 42.7852 13.6596C42.8272 13.6435 42.8654 13.6196 42.8976 13.5893C42.9299 13.559 42.9555 13.523 42.9731 13.4832C42.9907 13.4434 42.9998 13.4007 43 13.3575V8.46988H42.3177Z" fill="black"/>
</svg>
