<svg width="28" height="26" viewBox="0 0 28 26" fill="none" xmlns="http://www.w3.org/2000/svg">
<path fill-rule="evenodd" clip-rule="evenodd" d="M21.0561 0.00617843L0.890671 2.69523C0.890671 2.69523 0 2.79865 0 3.87184L0 23.0225C0 23.0225 0.121676 25.2638 2.68296 25.2638H25.5374C25.5374 25.2638 27.5743 24.7771 27.5743 22.7378V6.93565C27.5743 6.93565 27.6145 4.69437 24.9266 4.69437L2.88738 4.69437C2.62801 4.63953 2.38946 4.51238 2.19932 4.32763C2.00919 4.14288 1.87524 3.90808 1.81298 3.65039C1.74606 3.29509 1.88963 3.25859 2.26561 3.25859L22.5028 3.25859V1.07571C22.5028 1.07571 22.431 -0.094813 21.0561 0.00617843Z" fill="#E8451E"/>
<path fill-rule="evenodd" clip-rule="evenodd" d="M13.9491 22.8304C12.2773 22.8304 11.0459 22.1491 9.22928 20.3519C9.08049 20.1966 8.99823 19.9893 9.00003 19.7743C9.00182 19.5592 9.08753 19.3534 9.2389 19.2006C9.39026 19.0478 9.5953 18.9601 9.81033 18.9563C10.0254 18.9525 10.2334 19.0328 10.3901 19.1802C12.3028 21.071 13.1886 21.5407 14.7169 21.127C15.6051 20.8836 16.4021 19.7545 16.4484 18.4562C16.4849 17.4475 15.773 16.7892 14.3336 16.5008C11.7492 15.9837 10.2234 14.9957 9.79995 13.5624C9.45925 12.4089 9.90702 11.1203 11.0277 10.0337L11.0739 9.99237C13.4831 7.97863 16.2804 9.4789 17.423 10.5545C17.5754 10.7059 17.6628 10.9107 17.6666 11.1256C17.6704 11.3404 17.5902 11.5482 17.4431 11.7048C17.296 11.8614 17.0936 11.9544 16.879 11.9641C16.6644 11.9738 16.4544 11.8994 16.2938 11.7567C16.1977 11.6666 14.0331 9.70035 12.1568 11.2383C11.5156 11.8723 11.226 12.567 11.3842 13.1C11.6129 13.8763 12.7762 14.5114 14.6585 14.8886C17.8574 15.5286 18.1299 17.6422 18.0983 18.5207C18.0301 20.4346 16.4289 22.5786 14.9262 22.7684C14.6021 22.8097 14.2758 22.8304 13.9491 22.8304Z" fill="white"/>
</svg>
